PathFileType	4	(X/Y/Z)	C:/Users/opensim2020/Desktop/walking_exp_matlab/subject03_walking12_straight_03.trc																																																																																																																																														
DataRate	CameraRate	NumFrames	NumMarkers	Units	OrigDataRate	OrigDataStartFrame	OrigNumFrames																																																																																																																																										
100	100	4	48	mm	100	1682	185																																																																																																																																										
Frame#	Time	LFHD			RFHD			LBHD			RBHD			C7			T10			CLAV			STRN			RBAK			LSHO			LUPA			LELB			LFRM			LWRA			LWRB			LFIN			RSHO			RUPA			RELB			RFRM			RWRA			RWRB			RFIN			LASI			RASI			LPSI			RPSI			LTHI			LKNE			LTIB			LANK			LHEE			LTOE			RTHI			RKNE			RTIB			RANK			RHEE			RTOE			*39			*40			*41			*42			*43			*44			*45			*46			*47		
		X1	Y1	Z1	X2	Y2	Z2	X3	Y3	Z3	X4	Y4	Z4	X5	Y5	Z5	X6	Y6	Z6	X7	Y7	Z7	X8	Y8	Z8	X9	Y9	Z9	X10	Y10	Z10	X11	Y11	Z11	X12	Y12	Z12	X13	Y13	Z13	X14	Y14	Z14	X15	Y15	Z15	X16	Y16	Z16	X17	Y17	Z17	X18	Y18	Z18	X19	Y19	Z19	X20	Y20	Z20	X21	Y21	Z21	X22	Y22	Z22	X23	Y23	Z23	X24	Y24	Z24	X25	Y25	Z25	X26	Y26	Z26	X27	Y27	Z27	X28	Y28	Z28	X29	Y29	Z29	X30	Y30	Z30	X31	Y31	Z31	X32	Y32	Z32	X33	Y33	Z33	X34	Y34	Z34	X35	Y35	Z35	X36	Y36	Z36	X37	Y37	Z37	X38	Y38	Z38	X39	Y39	Z39	X40	Y40	Z40	X41	Y41	Z41	X42	Y42	Z42	X43	Y43	Z43	X44	Y44	Z44	X45	Y45	Z45	X46	Y46	Z46	X47	Y47	Z47	X48	Y48	Z48
																																																																																																																																																	
24	0.23	-854.81982	1627.4137	-999.57825	-882.08362	1616.20898	-869.1944	-966.51971	1556.76697	-1026.09631	-989.19922	1546.10413	-897.07068	-980.98834	1408.79688	-988.0791	-1029.12061	1103.87085	-1010.9082	-858.35956	1333.38184	-964.69507	-822.7663	1164.33679	-973.83997	-1053.66333	1237.67969	-913.10114	-868.62683	1380.81543	-1123.48181	-856.12885	1190.20349	-1207.21301	-841.14569	1068.69055	-1224.74438	-809.10986	942.15759	-1224.21143	-793.3645	823.02942	-1197.50781	-800.84814	831.1037	-1251.9303	-779.97308	750.01575	-1244.23193	-938.09088	1352.84302	-816.68286	-974.90076	1131.54919	-754.55176	-974.79694	1018.36798	-743.30658	-971.98761	881.32562	-742.61029	-942.19324	784.70209	-772.66583	-984.07324	780.93011	-739.09955	-963.70544	709.44452	-744.43579	-863.28809	930.11456	-1108.53259	-897.56885	926.71271	-876.25659	-1028.47205	964.51068	-1082.63379	-1048.24158	965.78656	-934.61115	-931.87341	627.63544	-1152.55652	-944.5423	453.08109	-1105.49414	-1018.48895	269.16461	-1115.93823	-1079.84082	64.78081	-1076.81885	-1128.99988	30.57121	-1044.94885	-936.10767	31.02822	-1045.00989	-896.14709	637.77454	-833.73236	-819.94507	473.11572	-853.08118	-933.67078	320.39496	-865.70331	-1059.49744	148.88496	-922.84607	-1107.55811	141.29477	-981.17877	-957.40039	49.91829	-926.69159	-959.63733	1662.01868	-962.08289	NaN	NaN	NaN	NaN	NaN	NaN	NaN	NaN	NaN	NaN	NaN	NaN	NaN	NaN	NaN	NaN	NaN	NaN	NaN	NaN	NaN	NaN	NaN	NaN
25	0.24	-843.53552	1626.34863	-1000.73596	-870.97644	1615.19946	-870.35419	-955.25299	1555.81238	-1027.39148	-978.12817	1545.20837	-898.40643	-970.04401	1407.66406	-989.14008	-1018.24005	1102.81384	-1011.73224	-847.47955	1332.27478	-965.7384	-812.03406	1163.12756	-974.63715	-1042.66614	1236.74536	-914.25293	-857.85864	1379.6687	-1124.30725	-843.26648	1189.5564	-1208.15967	-826.0556	1068.24988	-1225.04346	-790.52612	942.67047	-1223.14685	-771.31317	824.46521	-1194.96851	-779.06598	831.66443	-1249.48633	-754.96051	751.84741	-1240.94763	-927.25726	1351.93213	-817.6806	-965.06311	1130.78308	-755.4696	-965.43915	1017.62286	-744.17877	-963.37134	880.5661	-743.53644	-933.88165	783.72003	-773.52789	-975.98114	780.19916	-739.99896	-955.88287	708.35443	-745.64264	-852.96234	928.72253	-1109.53613	-886.20874	926.32135	-877.1496	-1018.26984	963.12256	-1082.57959	-1037.47754	964.72351	-934.56128	-925.61493	626.90204	-1153.42773	-941.41321	452.28604	-1105.94983	-1021.67419	266.89175	-1115.0708	-1079.57556	64.91808	-1076.70935	-1128.95264	31.05217	-1044.85498	-935.73279	30.91848	-1045.19763	-880.51337	638.88159	-833.97864	-801.5509	475.81223	-854.1438	-907.39423	316.69543	-866.39105	-1021.93304	137.32063	-923.23694	-1069.30676	126.031	-981.99921	-913.88116	46.19504	-923.86237	-947.31482	1661.09094	-964.08923	NaN	NaN	NaN	NaN	NaN	NaN	NaN	NaN	NaN	NaN	NaN	NaN	NaN	NaN	NaN	NaN	NaN	NaN	NaN	NaN	NaN	NaN	NaN	NaN
26	0.25	-832.13403	1625.03809	-1001.76416	-859.8075	1613.94238	-871.50903	-943.92157	1554.66003	-1028.61658	-967.01013	1544.10645	-899.68793	-959.09839	1406.42432	-990.09436	-1007.31189	1101.50696	-1012.41809	-836.38977	1331.04248	-966.85822	-801.11322	1161.84314	-975.58618	-1031.61658	1235.51477	-915.29028	-847.00262	1378.36169	-1125.28528	-830.57202	1188.66309	-1208.84839	-811.08472	1067.63757	-1225.39673	-772.07202	943.06866	-1222.06946	-749.15472	826.07709	-1192.4054	-757.27997	832.26373	-1246.91089	-730.21252	753.7132	-1237.49878	-916.26147	1350.69568	-818.70355	-954.95343	1129.75977	-756.30603	-955.81689	1016.54242	-745.00055	-954.43024	879.44214	-744.35236	-925.76215	782.46814	-774.36096	-967.63428	779.21674	-740.83002	-948.11823	707.20551	-746.59344	-842.92438	927.22119	-1110.36292	-874.89478	925.45544	-877.77576	-1007.97485	961.47632	-1082.53735	-1026.59741	963.31909	-934.45239	-918.69	625.57239	-1153.55688	-938.44049	451.05496	-1106.22778	-1019.93524	266.97952	-1115.27795	-1079.3772	65.11885	-1076.72974	-1128.75977	31.52355	-1044.86609	-935.10791	30.62355	-1045.37024	-864.7514	639.52008	-833.84662	-783.52887	477.92554	-855.11676	-881.11334	312.71841	-866.88446	-983.84894	126.10305	-923.07153	-1029.84167	110.95661	-982.48065	-869.93536	42.7526	-921.45648	-936.7655	1659.8717	-964.77765	NaN	NaN	NaN	NaN	NaN	NaN	NaN	NaN	NaN	NaN	NaN	NaN	NaN	NaN	NaN	NaN	NaN	NaN	NaN	NaN	NaN	NaN	NaN	NaN
27	0.26	-820.66357	1623.55017	-1002.83142	-848.34167	1612.46863	-872.48889	-932.48761	1553.31506	-1029.78674	-955.72668	1542.82056	-900.84973	-947.9649	1405.00317	-990.99261	-996.31158	1099.9729	-1012.90509	-825.33276	1329.58191	-967.65747	-790.08118	1160.37439	-976.4978	-1020.43945	1233.93457	-916.22443	-836.11157	1376.80908	-1126.09827	-818.02124	1187.5625	-1209.55334	-796.38531	1066.77209	-1225.77673	-753.64539	943.55322	-1221.00903	-726.88495	828.02002	-1189.78174	-735.45044	832.99133	-1244.28137	-705.65289	755.64746	-1233.86975	-905.09503	1349.25208	-819.65869	-944.5943	1128.453	-757.14581	-945.91711	1015.24194	-745.73016	-945.32397	878.11395	-745.11969	-917.48761	780.90802	-775.7276	-959.08752	777.93317	-741.5896	-940.22571	705.8465	-747.43707	-832.63043	925.39746	-1111.21082	-863.43463	924.44934	-878.31927	-997.54218	959.58661	-1082.40906	-1015.55377	961.60455	-934.3476	-911.43689	623.98401	-1152.77136	-935.50903	450.06207	-1106.58911	-1018.29645	266.94748	-1115.55005	-1079.13977	65.32117	-1076.85205	-1128.58704	32.04607	-1044.93774	-934.98431	30.20271	-1045.28699	-849.52136	640.03687	-833.85419	-766.33813	479.64786	-856.10773	-854.8186	308.51553	-867.078	-944.48798	114.78141	-922.75403	-989.47528	96.49848	-982.12134	-825.48724	39.91649	-919.63293	-925.23804	1658.45959	-965.98169	NaN	NaN	NaN	NaN	NaN	NaN	NaN	NaN	NaN	NaN	NaN	NaN	NaN	NaN	NaN	NaN	NaN	NaN	NaN	NaN	NaN	NaN	NaN	NaN
